# xmcd
#
# Track frame offsets: 
#        150
#        18889
#        34688
#        53510
#        73196
#        91976
#        114058
#        144082
#        160202
#        180168
#
# Disc length: 2713 seconds
#
# Revision: 0
# Processed by: cddbd v1.5.1PL0 Copyright (c) Steve Scherf et al.
# Submitted via: ExactAudioCopy v0.95b1
#
DISCID=6a0a970a
DTITLE=Jesse Cook - Free Fall
DYEAR=2000
DGENRE=New Age
TTITLE0=Switchback
TTITLE1=Air
TTITLE2=Virtue
TTITLE3=Free Fall
TTITLE4=Paloma
TTITLE5=Incantation
TTITLE6=All that Remains
TTITLE7=On Walks the Night
TTITLE8=Querido Amigo
TTITLE9=Viva
EXTD=
EXTT0=
EXTT1=
EXTT2=
EXTT3=
EXTT4=
EXTT5=
EXTT6=
EXTT7=
EXTT8=
EXTT9=
PLAYORDER=
